<?xml version="1.0" encoding="UTF-8" standalone="no"?>
<!-- Created with Inkscape (http://www.inkscape.org/) -->

<svg
   version="1.1"
   id="svg1"
   width="61.007"
   height="61.046001"
   viewBox="0 0 61.007 61.045999"
   sodipodi:docname="health.svg"
   inkscape:version="1.4.2 (ebf0e940d0, 2025-05-08)"
   xmlns:inkscape="http://www.inkscape.org/namespaces/inkscape"
   xmlns:sodipodi="http://sodipodi.sourceforge.net/DTD/sodipodi-0.dtd"
   xmlns="http://www.w3.org/2000/svg"
   xmlns:svg="http://www.w3.org/2000/svg">
  <defs
     id="defs1" />
  <sodipodi:namedview
     id="namedview1"
     pagecolor="#000000"
     bordercolor="#999999"
     borderopacity="1"
     inkscape:showpageshadow="2"
     inkscape:pageopacity="0"
     inkscape:pagecheckerboard="0"
     inkscape:deskcolor="#d1d1d1"
     inkscape:zoom="6.277909"
     inkscape:cx="85.378746"
     inkscape:cy="104.25446"
     inkscape:window-width="1918"
     inkscape:window-height="1038"
     inkscape:window-x="0"
     inkscape:window-y="20"
     inkscape:window-maximized="1"
     inkscape:current-layer="g1">
    <inkscape:page
       x="0"
       y="0"
       inkscape:label="1"
       id="page1"
       width="61.007"
       height="61.045998"
       margin="0"
       bleed="0" />
  </sodipodi:namedview>
  <g
     id="g1"
     inkscape:groupmode="layer"
     inkscape:label="1">
    <g
       id="g17"
       transform="translate(-368.02526,-528.90704)">
      <path
         id="path2"
         d="m 97,140.5 h 16"
         style="fill:none;stroke:#ffffff;stroke-width:0.15;stroke-linecap:round;stroke-linejoin:round;stroke-miterlimit:10;stroke-dasharray:none;stroke-opacity:1"
         transform="matrix(3.7775238,0,0,-3.7799327,1.8887619,1120.75)" />
      <path
         id="path3"
         d="m 113,140.5 v 16"
         style="fill:none;stroke:#ffffff;stroke-width:0.15;stroke-linecap:round;stroke-linejoin:round;stroke-miterlimit:10;stroke-dasharray:none;stroke-opacity:1"
         transform="matrix(3.7775238,0,0,-3.7799327,1.8887619,1120.75)" />
      <path
         id="path4"
         d="M 113,156.5 H 97"
         style="fill:none;stroke:#ffffff;stroke-width:0.15;stroke-linecap:round;stroke-linejoin:round;stroke-miterlimit:10;stroke-dasharray:none;stroke-opacity:1"
         transform="matrix(3.7775238,0,0,-3.7799327,1.8887619,1120.75)" />
      <path
         id="path5"
         d="m 97,156.5 v -16"
         style="fill:none;stroke:#ffffff;stroke-width:0.15;stroke-linecap:round;stroke-linejoin:round;stroke-miterlimit:10;stroke-dasharray:none;stroke-opacity:1"
         transform="matrix(3.7775238,0,0,-3.7799327,1.8887619,1120.75)" />
      <path
         id="path6"
         d="m 101,148.5 3.4641,6"
         style="fill:none;stroke:#ffffff;stroke-width:0.25;stroke-linecap:round;stroke-linejoin:round;stroke-miterlimit:10;stroke-dasharray:none;stroke-opacity:1"
         transform="matrix(3.7775238,0,0,-3.7799327,1.8887619,1120.75)" />
      <path
         id="path7"
         d="M 104.4641,154.5 H 97.535898"
         style="fill:none;stroke:#ffffff;stroke-width:0.25;stroke-linecap:round;stroke-linejoin:round;stroke-miterlimit:10;stroke-dasharray:none;stroke-opacity:1"
         transform="matrix(3.7775238,0,0,-3.7799327,1.8887619,1120.75)" />
      <path
         id="path8"
         d="M 97.535898,154.5 101,148.5"
         style="fill:none;stroke:#ffffff;stroke-width:0.25;stroke-linecap:round;stroke-linejoin:round;stroke-miterlimit:10;stroke-dasharray:none;stroke-opacity:1"
         transform="matrix(3.7775238,0,0,-3.7799327,1.8887619,1120.75)" />
      <path
         id="path9"
         d="m 109,148.5 3.4641,6"
         style="fill:none;stroke:#ffffff;stroke-width:0.25;stroke-linecap:round;stroke-linejoin:round;stroke-miterlimit:10;stroke-dasharray:none;stroke-opacity:1"
         transform="matrix(3.7775238,0,0,-3.7799327,1.8887619,1120.75)" />
      <path
         id="path10"
         d="m 112.4641,154.5 h -6.9282"
         style="fill:none;stroke:#ffffff;stroke-width:0.25;stroke-linecap:round;stroke-linejoin:round;stroke-miterlimit:10;stroke-dasharray:none;stroke-opacity:1"
         transform="matrix(3.7775238,0,0,-3.7799327,1.8887619,1120.75)" />
      <path
         id="path11"
         d="M 105.5359,154.5 109,148.5"
         style="fill:none;stroke:#ffffff;stroke-width:0.25;stroke-linecap:round;stroke-linejoin:round;stroke-miterlimit:10;stroke-dasharray:none;stroke-opacity:1"
         transform="matrix(3.7775238,0,0,-3.7799327,1.8887619,1120.75)" />
      <path
         id="path12"
         d="m 101.5359,148.5 h 6.9282"
         style="fill:none;stroke:#ffffff;stroke-width:0.25;stroke-linecap:round;stroke-linejoin:round;stroke-miterlimit:10;stroke-dasharray:none;stroke-opacity:1"
         transform="matrix(3.7775238,0,0,-3.7799327,1.8887619,1120.75)" />
      <path
         id="path13"
         d="M 108.4641,148.5 105,154.5"
         style="fill:none;stroke:#ffffff;stroke-width:0.25;stroke-linecap:round;stroke-linejoin:round;stroke-miterlimit:10;stroke-dasharray:none;stroke-opacity:1"
         transform="matrix(3.7775238,0,0,-3.7799327,1.8887619,1120.75)" />
      <path
         id="path14"
         d="m 105,154.5 -3.4641,-6"
         style="fill:none;stroke:#ffffff;stroke-width:0.25;stroke-linecap:round;stroke-linejoin:round;stroke-miterlimit:10;stroke-dasharray:none;stroke-opacity:1"
         transform="matrix(3.7775238,0,0,-3.7799327,1.8887619,1120.75)" />
      <path
         id="path15"
         d="m 105,141.5 3.75278,6.5"
         style="fill:none;stroke:#ffffff;stroke-width:0.25;stroke-linecap:round;stroke-linejoin:round;stroke-miterlimit:10;stroke-dasharray:none;stroke-opacity:1"
         transform="matrix(3.7775238,0,0,-3.7799327,1.8887619,1120.75)" />
      <path
         id="path16"
         d="m 108.75278,148 h -7.50556"
         style="fill:none;stroke:#ffffff;stroke-width:0.25;stroke-linecap:round;stroke-linejoin:round;stroke-miterlimit:10;stroke-dasharray:none;stroke-opacity:1"
         transform="matrix(3.7775238,0,0,-3.7799327,1.8887619,1120.75)" />
      <path
         id="path17"
         d="M 101.24722,148 105,141.5"
         style="fill:none;stroke:#ffffff;stroke-width:0.25;stroke-linecap:round;stroke-linejoin:round;stroke-miterlimit:10;stroke-dasharray:none;stroke-opacity:1"
         transform="matrix(3.7775238,0,0,-3.7799327,1.8887619,1120.75)" />
    </g>
  </g>
</svg>
