<?xml version="1.0" encoding="UTF-8" standalone="no"?>
<!-- Created with Inkscape (http://www.inkscape.org/) -->

<svg
   version="1.1"
   id="svg1"
   width="35.000999"
   height="18.999001"
   viewBox="0 0 35.000999 18.999"
   sodipodi:docname="enemy_1.svg"
   inkscape:version="1.4.2 (ebf0e940d0, 2025-05-08)"
   xmlns:inkscape="http://www.inkscape.org/namespaces/inkscape"
   xmlns:sodipodi="http://sodipodi.sourceforge.net/DTD/sodipodi-0.dtd"
   xmlns="http://www.w3.org/2000/svg"
   xmlns:svg="http://www.w3.org/2000/svg">
  <defs
     id="defs1" />
  <sodipodi:namedview
     id="namedview1"
     pagecolor="#000000"
     bordercolor="#999999"
     borderopacity="1"
     inkscape:showpageshadow="2"
     inkscape:pageopacity="0"
     inkscape:pagecheckerboard="0"
     inkscape:deskcolor="#d1d1d1"
     inkscape:zoom="4.439152"
     inkscape:cx="23.878434"
     inkscape:cy="61.836134"
     inkscape:window-width="1918"
     inkscape:window-height="1038"
     inkscape:window-x="0"
     inkscape:window-y="20"
     inkscape:window-maximized="1"
     inkscape:current-layer="g1">
    <inkscape:page
       x="0"
       y="0"
       inkscape:label="1"
       id="page1"
       width="35.000999"
       height="18.999001"
       margin="0"
       bleed="0" />
  </sodipodi:namedview>
  <g
     id="g1"
     inkscape:groupmode="layer"
     inkscape:label="1">
    <g
       id="g43"
       transform="matrix(0.97840269,0,0,0.97599299,-286.82338,-612.12844)">
      <path
         id="path2"
         d="m 77.8,130.5 h 1.162069"
         style="fill:none;stroke:#ffffff;stroke-width:0.15;stroke-linecap:round;stroke-linejoin:round;stroke-miterlimit:10;stroke-dasharray:none;stroke-opacity:1"
         transform="matrix(3.7775238,0,0,-3.7799327,1.8887619,1120.75)" />
      <path
         id="path3"
         d="M 78.962051,125.5 H 77.5"
         style="fill:none;stroke:#ffffff;stroke-width:0.15;stroke-linecap:round;stroke-linejoin:round;stroke-miterlimit:10;stroke-dasharray:none;stroke-opacity:1"
         transform="matrix(3.7775238,0,0,-3.7799327,1.8887619,1120.75)" />
      <path
         id="path4"
         d="m 77.5,129.5 v 0.8"
         style="fill:none;stroke:#ffffff;stroke-width:0.15;stroke-linecap:round;stroke-linejoin:round;stroke-miterlimit:10;stroke-dasharray:none;stroke-opacity:1"
         transform="matrix(3.7775238,0,0,-3.7799327,1.8887619,1120.75)" />
      <path
         id="path5"
         d="m 77.5,130 h 1"
         style="fill:none;stroke:#ffffff;stroke-width:0.09;stroke-linecap:round;stroke-linejoin:round;stroke-miterlimit:10;stroke-dasharray:none;stroke-opacity:1"
         transform="matrix(3.7775238,0,0,-3.7799327,1.8887619,1120.75)" />
      <path
         id="path6"
         d="M 78.890916,130.18825 78.962069,130.5"
         style="fill:none;stroke:#ffffff;stroke-width:0.09;stroke-linecap:round;stroke-linejoin:round;stroke-miterlimit:10;stroke-dasharray:none;stroke-opacity:1"
         transform="matrix(3.7775238,0,0,-3.7799327,1.8887619,1120.75)" />
      <path
         id="path7"
         d="m 78.5,130 0.390916,0.18825"
         style="fill:none;stroke:#ffffff;stroke-width:0.09;stroke-linecap:round;stroke-linejoin:round;stroke-miterlimit:10;stroke-dasharray:none;stroke-opacity:1"
         transform="matrix(3.7775238,0,0,-3.7799327,1.8887619,1120.75)" />
      <path
         id="path8"
         d="m 77.5,130.3 0.01878,0.0379 0.02355,0.0352 0.02792,0.0318 0.03182,0.0279 0.03518,0.0235 0.03794,0.0188 0.04006,0.0137 0.04149,0.008 0.04223,0.003 h 0.001"
         style="fill:none;stroke:#ffffff;stroke-width:0.15;stroke-linecap:round;stroke-linejoin:round;stroke-miterlimit:10;stroke-dasharray:none;stroke-opacity:1"
         transform="matrix(3.7775238,0,0,-3.7799327,1.8887619,1120.75)" />
      <path
         id="path9"
         d="M 78,130.5 77.5,130"
         style="fill:none;stroke:#ffffff;stroke-width:0.05;stroke-linecap:round;stroke-linejoin:round;stroke-miterlimit:10;stroke-dasharray:none;stroke-opacity:1"
         transform="matrix(3.7775238,0,0,-3.7799327,1.8887619,1120.75)" />
      <path
         id="path10"
         d="M 78.5,130.5 78,130"
         style="fill:none;stroke:#ffffff;stroke-width:0.05;stroke-linecap:round;stroke-linejoin:round;stroke-miterlimit:10;stroke-dasharray:none;stroke-opacity:1"
         transform="matrix(3.7775238,0,0,-3.7799327,1.8887619,1120.75)" />
      <path
         id="path11"
         d="m 79.232051,126.5 v 2"
         style="fill:none;stroke:#ffffff;stroke-width:0.15;stroke-linecap:round;stroke-linejoin:round;stroke-miterlimit:10;stroke-dasharray:none;stroke-opacity:1"
         transform="matrix(3.7775238,0,0,-3.7799327,1.8887619,1120.75)" />
      <path
         id="path12"
         d="M 79.232051,128.5 77.5,129.5"
         style="fill:none;stroke:#ffffff;stroke-width:0.15;stroke-linecap:round;stroke-linejoin:round;stroke-miterlimit:10;stroke-dasharray:none;stroke-opacity:1"
         transform="matrix(3.7775238,0,0,-3.7799327,1.8887619,1120.75)" />
      <path
         id="path13"
         d="m 77.5,125.5 1.732051,1"
         style="fill:none;stroke:#ffffff;stroke-width:0.15;stroke-linecap:round;stroke-linejoin:round;stroke-miterlimit:10;stroke-dasharray:none;stroke-opacity:1"
         transform="matrix(3.7775238,0,0,-3.7799327,1.8887619,1120.75)" />
      <path
         id="path14"
         d="m 77.5,129.5 0.03066,-0.0292 0.03021,-0.0297 0.02975,-0.0301 0.02928,-0.0306 0.0288,-0.0311 0.02832,-0.0315 0.02783,-0.0319 0.02733,-0.0324 0.02683,-0.0328 0.02632,-0.0332 0.02581,-0.0336 0.02528,-0.034 0.02475,-0.0344 0.02422,-0.0347 0.02368,-0.0351 0.02314,-0.0355 0.02259,-0.0358 0.02203,-0.0362 0.02147,-0.0365 0.0209,-0.0368 0.02033,-0.0372 0.01975,-0.0375 0.01917,-0.0378 0.01859,-0.0381 0.018,-0.0383 0.0174,-0.0386 0.0168,-0.0389 0.0162,-0.0391 0.0156,-0.0394 0.01499,-0.0396 0.01437,-0.0399 0.01376,-0.0401 0.01313,-0.0403 0.01251,-0.0405 0.01189,-0.0406 0.01126,-0.0408 0.01062,-0.041 0.01,-0.0412 0.0094,-0.0413 0.0087,-0.0414 0.0081,-0.0416 0.0074,-0.0417 0.0068,-0.0418 0.0061,-0.0419 0.0055,-0.042 0.0048,-0.0421 0.0042,-0.0421 0.0035,-0.0422 0.0029,-0.0423 0.0022,-0.0423 0.0016,-0.0423 9.27e-4,-0.0423 2.72e-4,-0.0423 -3.82e-4,-0.0423 -0.001,-0.0423 -0.0017,-0.0423 -0.0023,-0.0423 -0.003,-0.0422 -0.0036,-0.0422 -0.0043,-0.0421 -0.0049,-0.0421 -0.0056,-0.042 -0.0062,-0.0419 -0.0069,-0.0418 -0.0075,-0.0417 -0.0082,-0.0416 -0.0088,-0.0414 -0.0095,-0.0413 -0.0101,-0.0411 -0.01073,-0.041 -0.01136,-0.0408 -0.01199,-0.0406 -0.01262,-0.0404 -0.01324,-0.0402 -0.01386,-0.04 -0.01448,-0.0398 -0.01509,-0.0396 -0.0157,-0.0393 -0.0163,-0.0391 -0.01691,-0.0388 -0.0175,-0.0386 -0.0181,-0.0383 -0.01869,-0.038 -0.01927,-0.0377 -0.01985,-0.0374 -0.02043,-0.0371 -0.021,-0.0368 -0.02156,-0.0365 -0.02212,-0.0361 -0.02268,-0.0358 -0.02323,-0.0354 -0.02377,-0.0351 -0.02431,-0.0347 -0.02484,-0.0343 -0.02537,-0.0339 -0.02589,-0.0335 -0.02641,-0.0331 -0.02692,-0.0327 -0.02742,-0.0323 -0.02791,-0.0318 -0.0284,-0.0314 -0.02888,-0.031 -0.02936,-0.0305 -0.02983,-0.0301 -0.03029,-0.0296 L 77.5,125.5"
         style="fill:none;stroke:#ffffff;stroke-width:0.09;stroke-linecap:round;stroke-linejoin:round;stroke-miterlimit:10;stroke-dasharray:none;stroke-opacity:1"
         transform="matrix(3.7775238,0,0,-3.7799327,1.8887619,1120.75)" />
      <path
         id="path15"
         d="m 78.366025,127.5 0.866026,1"
         style="fill:none;stroke:#ffffff;stroke-width:0.05;stroke-linecap:round;stroke-linejoin:round;stroke-miterlimit:10;stroke-dasharray:none;stroke-opacity:1"
         transform="matrix(3.7775238,0,0,-3.7799327,1.8887619,1120.75)" />
      <path
         id="path16"
         d="m 78.366025,127.5 0.866026,-1"
         style="fill:none;stroke:#ffffff;stroke-width:0.05;stroke-linecap:round;stroke-linejoin:round;stroke-miterlimit:10;stroke-dasharray:none;stroke-opacity:1"
         transform="matrix(3.7775238,0,0,-3.7799327,1.8887619,1120.75)" />
      <path
         id="path17"
         d="m 78.799038,127 0.433013,0.5"
         style="fill:none;stroke:#ffffff;stroke-width:0.05;stroke-linecap:round;stroke-linejoin:round;stroke-miterlimit:10;stroke-dasharray:none;stroke-opacity:1"
         transform="matrix(3.7775238,0,0,-3.7799327,1.8887619,1120.75)" />
      <path
         id="path18"
         d="M 79.232051,127.5 78.799038,128"
         style="fill:none;stroke:#ffffff;stroke-width:0.05;stroke-linecap:round;stroke-linejoin:round;stroke-miterlimit:10;stroke-dasharray:none;stroke-opacity:1"
         transform="matrix(3.7775238,0,0,-3.7799327,1.8887619,1120.75)" />
      <path
         id="path19"
         d="M 78.366025,127.5 H 77.3"
         style="fill:none;stroke:#ffffff;stroke-width:0.09;stroke-linecap:round;stroke-linejoin:round;stroke-miterlimit:10;stroke-dasharray:none;stroke-opacity:1"
         transform="matrix(3.7775238,0,0,-3.7799327,1.8887619,1120.75)" />
      <path
         id="path20"
         d="M 77.15,127.24019 77.6,127.5"
         style="fill:none;stroke:#ffffff;stroke-width:0.09;stroke-linecap:round;stroke-linejoin:round;stroke-miterlimit:10;stroke-dasharray:none;stroke-opacity:1"
         transform="matrix(3.7775238,0,0,-3.7799327,1.8887619,1120.75)" />
      <path
         id="path21"
         d="m 77.6,127.5 -0.45,0.25981"
         style="fill:none;stroke:#ffffff;stroke-width:0.09;stroke-linecap:round;stroke-linejoin:round;stroke-miterlimit:10;stroke-dasharray:none;stroke-opacity:1"
         transform="matrix(3.7775238,0,0,-3.7799327,1.8887619,1120.75)" />
      <path
         id="path22"
         d="M 77.15,127.24019 79.232051,126.5"
         style="fill:none;stroke:#ffffff;stroke-width:0.05;stroke-linecap:round;stroke-linejoin:round;stroke-miterlimit:10;stroke-dasharray:none;stroke-opacity:1"
         transform="matrix(3.7775238,0,0,-3.7799327,1.8887619,1120.75)" />
      <path
         id="path23"
         d="M 77.15,127.75981 79.232051,128.5"
         style="fill:none;stroke:#ffffff;stroke-width:0.05;stroke-linecap:round;stroke-linejoin:round;stroke-miterlimit:10;stroke-dasharray:none;stroke-opacity:1"
         transform="matrix(3.7775238,0,0,-3.7799327,1.8887619,1120.75)" />
      <path
         id="path24"
         d="m 77.15,127.75981 0.01976,-0.0375 0.01663,-0.0389 0.01338,-0.0402 0.01005,-0.0411 0.0067,-0.0418 0.0032,-0.0422 -2.54e-4,-0.0423 -0.0037,-0.0422 -0.0072,-0.0417 -0.01055,-0.041 -0.01387,-0.04 -0.01709,-0.0387 -0.01705,-0.0319"
         style="fill:none;stroke:#ffffff;stroke-width:0.05;stroke-linecap:round;stroke-linejoin:round;stroke-miterlimit:10;stroke-dasharray:none;stroke-opacity:1"
         transform="matrix(3.7775238,0,0,-3.7799327,1.8887619,1120.75)" />
      <path
         id="path25"
         d="M 78.962069,130.5 80.5,129.5"
         style="fill:none;stroke:#ffffff;stroke-width:0.15;stroke-linecap:round;stroke-linejoin:round;stroke-miterlimit:10;stroke-dasharray:none;stroke-opacity:1"
         transform="matrix(3.7775238,0,0,-3.7799327,1.8887619,1120.75)" />
      <path
         id="path26"
         d="M 78.962051,125.5 80.5,126"
         style="fill:none;stroke:#ffffff;stroke-width:0.15;stroke-linecap:round;stroke-linejoin:round;stroke-miterlimit:10;stroke-dasharray:none;stroke-opacity:1"
         transform="matrix(3.7775238,0,0,-3.7799327,1.8887619,1120.75)" />
      <path
         id="path27"
         d="m 80.5,126 0.3,0.5"
         style="fill:none;stroke:#ffffff;stroke-width:0.15;stroke-linecap:round;stroke-linejoin:round;stroke-miterlimit:10;stroke-dasharray:none;stroke-opacity:1"
         transform="matrix(3.7775238,0,0,-3.7799327,1.8887619,1120.75)" />
      <path
         id="path28"
         d="m 80.5,129.5 0.3,-0.7"
         style="fill:none;stroke:#ffffff;stroke-width:0.15;stroke-linecap:round;stroke-linejoin:round;stroke-miterlimit:10;stroke-dasharray:none;stroke-opacity:1"
         transform="matrix(3.7775238,0,0,-3.7799327,1.8887619,1120.75)" />
      <path
         id="path29"
         d="m 80.8,126.5 h 1.7"
         style="fill:none;stroke:#ffffff;stroke-width:0.15;stroke-linecap:round;stroke-linejoin:round;stroke-miterlimit:10;stroke-dasharray:none;stroke-opacity:1"
         transform="matrix(3.7775238,0,0,-3.7799327,1.8887619,1120.75)" />
      <path
         id="path30"
         d="m 82.5,126.5 -0.6,-0.4"
         style="fill:none;stroke:#ffffff;stroke-width:0.15;stroke-linecap:round;stroke-linejoin:round;stroke-miterlimit:10;stroke-dasharray:none;stroke-opacity:1"
         transform="matrix(3.7775238,0,0,-3.7799327,1.8887619,1120.75)" />
      <path
         id="path31"
         d="m 81.9,126.1 h 3.6"
         style="fill:none;stroke:#ffffff;stroke-width:0.15;stroke-linecap:round;stroke-linejoin:round;stroke-miterlimit:10;stroke-dasharray:none;stroke-opacity:1"
         transform="matrix(3.7775238,0,0,-3.7799327,1.8887619,1120.75)" />
      <path
         id="path32"
         d="m 85.5,126.1 1,0.4"
         style="fill:none;stroke:#ffffff;stroke-width:0.15;stroke-linecap:round;stroke-linejoin:round;stroke-miterlimit:10;stroke-dasharray:none;stroke-opacity:1"
         transform="matrix(3.7775238,0,0,-3.7799327,1.8887619,1120.75)" />
      <path
         id="path33"
         d="m 80.8,128.8 h 1.7"
         style="fill:none;stroke:#ffffff;stroke-width:0.15;stroke-linecap:round;stroke-linejoin:round;stroke-miterlimit:10;stroke-dasharray:none;stroke-opacity:1"
         transform="matrix(3.7775238,0,0,-3.7799327,1.8887619,1120.75)" />
      <path
         id="path34"
         d="m 82.5,128.8 -0.6,0.4"
         style="fill:none;stroke:#ffffff;stroke-width:0.15;stroke-linecap:round;stroke-linejoin:round;stroke-miterlimit:10;stroke-dasharray:none;stroke-opacity:1"
         transform="matrix(3.7775238,0,0,-3.7799327,1.8887619,1120.75)" />
      <path
         id="path35"
         d="m 81.9,129.2 h 3.6"
         style="fill:none;stroke:#ffffff;stroke-width:0.15;stroke-linecap:round;stroke-linejoin:round;stroke-miterlimit:10;stroke-dasharray:none;stroke-opacity:1"
         transform="matrix(3.7775238,0,0,-3.7799327,1.8887619,1120.75)" />
      <path
         id="path36"
         d="m 85.5,129.2 1,-0.4"
         style="fill:none;stroke:#ffffff;stroke-width:0.15;stroke-linecap:round;stroke-linejoin:round;stroke-miterlimit:10;stroke-dasharray:none;stroke-opacity:1"
         transform="matrix(3.7775238,0,0,-3.7799327,1.8887619,1120.75)" />
      <path
         id="path37"
         d="m 86.5,128.8 v -2.3"
         style="fill:none;stroke:#ffffff;stroke-width:0.15;stroke-linecap:round;stroke-linejoin:round;stroke-miterlimit:10;stroke-dasharray:none;stroke-opacity:1"
         transform="matrix(3.7775238,0,0,-3.7799327,1.8887619,1120.75)" />
      <path
         id="path38"
         d="m 80.6,128.5 h 1.9"
         style="fill:none;stroke:#ffffff;stroke-width:0.09;stroke-linecap:round;stroke-linejoin:round;stroke-miterlimit:10;stroke-dasharray:none;stroke-opacity:1"
         transform="matrix(3.7775238,0,0,-3.7799327,1.8887619,1120.75)" />
      <path
         id="path39"
         d="m 82.5,128.5 0.3,-0.3"
         style="fill:none;stroke:#ffffff;stroke-width:0.09;stroke-linecap:round;stroke-linejoin:round;stroke-miterlimit:10;stroke-dasharray:none;stroke-opacity:1"
         transform="matrix(3.7775238,0,0,-3.7799327,1.8887619,1120.75)" />
      <path
         id="path40"
         d="m 80.6,128.5 0.3,-0.3"
         style="fill:none;stroke:#ffffff;stroke-width:0.09;stroke-linecap:round;stroke-linejoin:round;stroke-miterlimit:10;stroke-dasharray:none;stroke-opacity:1"
         transform="matrix(3.7775238,0,0,-3.7799327,1.8887619,1120.75)" />
      <path
         id="path41"
         d="m 80.9,128.2 h 1.9"
         style="fill:none;stroke:#ffffff;stroke-width:0.09;stroke-linecap:round;stroke-linejoin:round;stroke-miterlimit:10;stroke-dasharray:none;stroke-opacity:1"
         transform="matrix(3.7775238,0,0,-3.7799327,1.8887619,1120.75)" />
      <path
         id="path42"
         d="m 80.6,128.5 2.2,-0.3"
         style="fill:none;stroke:#ffffff;stroke-width:0.05;stroke-linecap:round;stroke-linejoin:round;stroke-miterlimit:10;stroke-dasharray:none;stroke-opacity:1"
         transform="matrix(3.7775238,0,0,-3.7799327,1.8887619,1120.75)" />
      <path
         id="path43"
         d="m 81.55,128.5 1.25,-0.3"
         style="fill:none;stroke:#ffffff;stroke-width:0.05;stroke-linecap:round;stroke-linejoin:round;stroke-miterlimit:10;stroke-dasharray:none;stroke-opacity:1"
         transform="matrix(3.7775238,0,0,-3.7799327,1.8887619,1120.75)" />
    </g>
  </g>
</svg>
