<?xml version="1.0" encoding="UTF-8" standalone="no"?>
<!-- Created with Inkscape (http://www.inkscape.org/) -->

<svg
   version="1.1"
   id="svg1"
   width="128"
   height="26"
   viewBox="0 0 128 25.999998"
   sodipodi:docname="player_ship.svg"
   inkscape:version="1.4.2 (ebf0e940d0, 2025-05-08)"
   xmlns:inkscape="http://www.inkscape.org/namespaces/inkscape"
   xmlns:sodipodi="http://sodipodi.sourceforge.net/DTD/sodipodi-0.dtd"
   xmlns="http://www.w3.org/2000/svg"
   xmlns:svg="http://www.w3.org/2000/svg">
  <defs
     id="defs1" />
  <sodipodi:namedview
     id="namedview1"
     pagecolor="#000000"
     bordercolor="#999999"
     borderopacity="1"
     inkscape:showpageshadow="2"
     inkscape:pageopacity="0"
     inkscape:pagecheckerboard="0"
     inkscape:deskcolor="#d1d1d1"
     inkscape:zoom="9.36"
     inkscape:cx="93.536325"
     inkscape:cy="25.267094"
     inkscape:window-width="1918"
     inkscape:window-height="1038"
     inkscape:window-x="0"
     inkscape:window-y="20"
     inkscape:window-maximized="1"
     inkscape:current-layer="g1"
     showguides="true">
    <inkscape:page
       x="0"
       y="0"
       inkscape:label="1"
       id="page1"
       width="128"
       height="25.999998"
       margin="0"
       bleed="0" />
  </sodipodi:namedview>
  <g
     id="g1"
     inkscape:groupmode="layer"
     inkscape:label="1">
    <g
       id="g42"
       inkscape:label="ship"
       transform="matrix(1.9849534,0,0,1.9084402,-723.31193,-1058.1333)">
      <path
         id="path2"
         d="m 96.55,147 v 1.5"
         style="fill:none;stroke:#ffffff;stroke-width:0.15;stroke-linecap:round;stroke-linejoin:round;stroke-miterlimit:10;stroke-dasharray:none;stroke-opacity:1"
         transform="matrix(3.7775238,0,0,-3.7799327,0,1122.64)" />
      <path
         id="path3"
         d="m 96.55,148.5 1,0.25"
         style="fill:none;stroke:#ffffff;stroke-width:0.15;stroke-linecap:round;stroke-linejoin:round;stroke-miterlimit:10;stroke-dasharray:none;stroke-opacity:1"
         transform="matrix(3.7775238,0,0,-3.7799327,0,1122.64)" />
      <path
         id="path4"
         d="m 97.55,148.75 -0.5,1.5"
         style="fill:none;stroke:#ffffff;stroke-width:0.15;stroke-linecap:round;stroke-linejoin:round;stroke-miterlimit:10;stroke-dasharray:none;stroke-opacity:1"
         transform="matrix(3.7775238,0,0,-3.7799327,0,1122.64)" />
      <path
         id="path5"
         d="m 97.05,150.25 h 2"
         style="fill:none;stroke:#ffffff;stroke-width:0.15;stroke-linecap:round;stroke-linejoin:round;stroke-miterlimit:10;stroke-dasharray:none;stroke-opacity:1"
         transform="matrix(3.7775238,0,0,-3.7799327,0,1122.64)" />
      <path
         id="path6"
         d="m 99.05,150.25 1.5,-1.5"
         style="fill:none;stroke:#ffffff;stroke-width:0.15;stroke-linecap:round;stroke-linejoin:round;stroke-miterlimit:10;stroke-dasharray:none;stroke-opacity:1"
         transform="matrix(3.7775238,0,0,-3.7799327,0,1122.64)" />
      <path
         id="path7"
         d="m 100.55,148.75 3,0.4"
         style="fill:none;stroke:#ffffff;stroke-width:0.15;stroke-linecap:round;stroke-linejoin:round;stroke-miterlimit:10;stroke-dasharray:none;stroke-opacity:1"
         transform="matrix(3.7775238,0,0,-3.7799327,0,1122.64)" />
      <path
         id="path8"
         d="m 103.55,149.15 v -0.4"
         style="fill:none;stroke:#ffffff;stroke-width:0.15;stroke-linecap:round;stroke-linejoin:round;stroke-miterlimit:10;stroke-dasharray:none;stroke-opacity:1"
         transform="matrix(3.7775238,0,0,-3.7799327,0,1122.64)" />
      <path
         id="path9"
         d="m 103.55,148.75 h 2"
         style="fill:none;stroke:#ffffff;stroke-width:0.15;stroke-linecap:round;stroke-linejoin:round;stroke-miterlimit:10;stroke-dasharray:none;stroke-opacity:1"
         transform="matrix(3.7775238,0,0,-3.7799327,0,1122.64)" />
      <path
         id="path10"
         d="m 105.55,148.75 0.9,-0.7"
         style="fill:none;stroke:#ffffff;stroke-width:0.15;stroke-linecap:round;stroke-linejoin:round;stroke-miterlimit:10;stroke-dasharray:none;stroke-opacity:1"
         transform="matrix(3.7775238,0,0,-3.7799327,0,1122.64)" />
      <path
         id="path11"
         d="m 106.45,148.05 h 3.5"
         style="fill:none;stroke:#ffffff;stroke-width:0.15;stroke-linecap:round;stroke-linejoin:round;stroke-miterlimit:10;stroke-dasharray:none;stroke-opacity:1"
         transform="matrix(3.7775238,0,0,-3.7799327,0,1122.64)" />
      <path
         id="path12"
         d="m 109.95,148.05 -0.5,-0.5"
         style="fill:none;stroke:#ffffff;stroke-width:0.15;stroke-linecap:round;stroke-linejoin:round;stroke-miterlimit:10;stroke-dasharray:none;stroke-opacity:1"
         transform="matrix(3.7775238,0,0,-3.7799327,0,1122.64)" />
      <path
         id="path13"
         d="m 109.45,147.55 h 3"
         style="fill:none;stroke:#ffffff;stroke-width:0.15;stroke-linecap:round;stroke-linejoin:round;stroke-miterlimit:10;stroke-dasharray:none;stroke-opacity:1"
         transform="matrix(3.7775238,0,0,-3.7799327,0,1122.64)" />
      <path
         id="path14"
         d="m 112.45,147.55 1,-0.5"
         style="fill:none;stroke:#ffffff;stroke-width:0.15;stroke-linecap:round;stroke-linejoin:round;stroke-miterlimit:10;stroke-dasharray:none;stroke-opacity:1"
         transform="matrix(3.7775238,0,0,-3.7799327,0,1122.64)" />
      <path
         id="path15"
         d="M 110.45,146.75 H 97.55"
         style="fill:none;stroke:#ffffff;stroke-width:0.15;stroke-linecap:round;stroke-linejoin:round;stroke-miterlimit:10;stroke-dasharray:none;stroke-opacity:1"
         transform="matrix(3.7775238,0,0,-3.7799327,0,1122.64)" />
      <path
         id="path16"
         d="m 97.55,146.75 -1,0.25"
         style="fill:none;stroke:#ffffff;stroke-width:0.15;stroke-linecap:round;stroke-linejoin:round;stroke-miterlimit:10;stroke-dasharray:none;stroke-opacity:1"
         transform="matrix(3.7775238,0,0,-3.7799327,0,1122.64)" />
      <path
         id="path17"
         d="m 110.45,146.75 0.75,0.075"
         style="fill:none;stroke:#ffffff;stroke-width:0.15;stroke-linecap:round;stroke-linejoin:round;stroke-miterlimit:10;stroke-dasharray:none;stroke-opacity:1"
         transform="matrix(3.7775238,0,0,-3.7799327,0,1122.64)" />
      <path
         id="path18"
         d="m 111.2,146.825 0.75,0.075"
         style="fill:none;stroke:#ffffff;stroke-width:0.15;stroke-linecap:round;stroke-linejoin:round;stroke-miterlimit:10;stroke-dasharray:none;stroke-opacity:1"
         transform="matrix(3.7775238,0,0,-3.7799327,0,1122.64)" />
      <path
         id="path19"
         d="m 111.95,146.9 0.75,0.075"
         style="fill:none;stroke:#ffffff;stroke-width:0.15;stroke-linecap:round;stroke-linejoin:round;stroke-miterlimit:10;stroke-dasharray:none;stroke-opacity:1"
         transform="matrix(3.7775238,0,0,-3.7799327,0,1122.64)" />
      <path
         id="path20"
         d="m 112.7,146.975 0.75,0.075"
         style="fill:none;stroke:#ffffff;stroke-width:0.15;stroke-linecap:round;stroke-linejoin:round;stroke-miterlimit:10;stroke-dasharray:none;stroke-opacity:1"
         transform="matrix(3.7775238,0,0,-3.7799327,0,1122.64)" />
      <path
         id="path21"
         d="m 106.45,148.05 -0.2,-0.3"
         style="fill:none;stroke:#ffffff;stroke-width:0.05;stroke-linecap:round;stroke-linejoin:round;stroke-miterlimit:10;stroke-dasharray:none;stroke-opacity:1"
         transform="matrix(3.7775238,0,0,-3.7799327,0,1122.64)" />
      <path
         id="path22"
         d="m 106.25,147.75 h -2.5"
         style="fill:none;stroke:#ffffff;stroke-width:0.05;stroke-linecap:round;stroke-linejoin:round;stroke-miterlimit:10;stroke-dasharray:none;stroke-opacity:1"
         transform="matrix(3.7775238,0,0,-3.7799327,0,1122.64)" />
      <path
         id="path23"
         d="m 103.75,147.75 v 1"
         style="fill:none;stroke:#ffffff;stroke-width:0.05;stroke-linecap:round;stroke-linejoin:round;stroke-miterlimit:10;stroke-dasharray:none;stroke-opacity:1"
         transform="matrix(3.7775238,0,0,-3.7799327,0,1122.64)" />
      <path
         id="path24"
         d="m 108.55,148.05 -0.2,-0.3"
         style="fill:none;stroke:#ffffff;stroke-width:0.05;stroke-linecap:round;stroke-linejoin:round;stroke-miterlimit:10;stroke-dasharray:none;stroke-opacity:1"
         transform="matrix(3.7775238,0,0,-3.7799327,0,1122.64)" />
      <path
         id="path25"
         d="m 108.35,147.75 h -0.7"
         style="fill:none;stroke:#ffffff;stroke-width:0.05;stroke-linecap:round;stroke-linejoin:round;stroke-miterlimit:10;stroke-dasharray:none;stroke-opacity:1"
         transform="matrix(3.7775238,0,0,-3.7799327,0,1122.64)" />
      <path
         id="path26"
         d="m 107.65,147.75 0.2,0.3"
         style="fill:none;stroke:#ffffff;stroke-width:0.05;stroke-linecap:round;stroke-linejoin:round;stroke-miterlimit:10;stroke-dasharray:none;stroke-opacity:1"
         transform="matrix(3.7775238,0,0,-3.7799327,0,1122.64)" />
      <path
         id="path27"
         d="m 108.25,147.75 0.2,0.3"
         style="fill:none;stroke:#ffffff;stroke-width:0.05;stroke-linecap:round;stroke-linejoin:round;stroke-miterlimit:10;stroke-dasharray:none;stroke-opacity:1"
         transform="matrix(3.7775238,0,0,-3.7799327,0,1122.64)" />
      <path
         id="path28"
         d="m 108.15,147.75 0.2,0.3"
         style="fill:none;stroke:#ffffff;stroke-width:0.05;stroke-linecap:round;stroke-linejoin:round;stroke-miterlimit:10;stroke-dasharray:none;stroke-opacity:1"
         transform="matrix(3.7775238,0,0,-3.7799327,0,1122.64)" />
      <path
         id="path29"
         d="m 108.05,147.75 0.2,0.3"
         style="fill:none;stroke:#ffffff;stroke-width:0.05;stroke-linecap:round;stroke-linejoin:round;stroke-miterlimit:10;stroke-dasharray:none;stroke-opacity:1"
         transform="matrix(3.7775238,0,0,-3.7799327,0,1122.64)" />
      <path
         id="path30"
         d="m 107.95,147.75 0.2,0.3"
         style="fill:none;stroke:#ffffff;stroke-width:0.05;stroke-linecap:round;stroke-linejoin:round;stroke-miterlimit:10;stroke-dasharray:none;stroke-opacity:1"
         transform="matrix(3.7775238,0,0,-3.7799327,0,1122.64)" />
      <path
         id="path31"
         d="m 107.85,147.75 0.2,0.3"
         style="fill:none;stroke:#ffffff;stroke-width:0.05;stroke-linecap:round;stroke-linejoin:round;stroke-miterlimit:10;stroke-dasharray:none;stroke-opacity:1"
         transform="matrix(3.7775238,0,0,-3.7799327,0,1122.64)" />
      <path
         id="path32"
         d="m 107.75,147.75 0.2,0.3"
         style="fill:none;stroke:#ffffff;stroke-width:0.05;stroke-linecap:round;stroke-linejoin:round;stroke-miterlimit:10;stroke-dasharray:none;stroke-opacity:1"
         transform="matrix(3.7775238,0,0,-3.7799327,0,1122.64)" />
      <path
         id="path33"
         d="m 103.55,148.95 h 0.3"
         style="fill:none;stroke:#ffffff;stroke-width:0.05;stroke-linecap:round;stroke-linejoin:round;stroke-miterlimit:10;stroke-dasharray:none;stroke-opacity:1"
         transform="matrix(3.7775238,0,0,-3.7799327,0,1122.64)" />
      <path
         id="path34"
         d="m 104.05,148.75 -0.004,0.042 -0.0132,0.0402 -0.0214,0.0365 -0.0285,0.0312 -0.0345,0.0245 -0.0388,0.0167 -0.0415,0.008 -0.0177,7.8e-4"
         style="fill:none;stroke:#ffffff;stroke-width:0.05;stroke-linecap:round;stroke-linejoin:round;stroke-miterlimit:10;stroke-dasharray:none;stroke-opacity:1"
         transform="matrix(3.7775238,0,0,-3.7799327,0,1122.64)" />
      <path
         id="path35"
         d="m 97.55,148.75 h 3"
         style="fill:none;stroke:#ffffff;stroke-width:0.15;stroke-linecap:round;stroke-linejoin:round;stroke-miterlimit:10;stroke-dasharray:none;stroke-opacity:1"
         transform="matrix(3.7775238,0,0,-3.7799327,0,1122.64)" />
      <path
         id="path36"
         d="m 97.55,147.75 h 3"
         style="fill:none;stroke:#ffffff;stroke-width:0.15;stroke-linecap:round;stroke-linejoin:round;stroke-miterlimit:10;stroke-dasharray:none;stroke-opacity:1"
         transform="matrix(3.7775238,0,0,-3.7799327,0,1122.64)" />
      <path
         id="path37"
         d="m 99.05,147.45 h -2"
         style="fill:none;stroke:#ffffff;stroke-width:0.15;stroke-linecap:round;stroke-linejoin:round;stroke-miterlimit:10;stroke-dasharray:none;stroke-opacity:1"
         transform="matrix(3.7775238,0,0,-3.7799327,0,1122.64)" />
      <path
         id="path38"
         d="m 97.55,147.75 -0.5,-0.3"
         style="fill:none;stroke:#ffffff;stroke-width:0.15;stroke-linecap:round;stroke-linejoin:round;stroke-miterlimit:10;stroke-dasharray:none;stroke-opacity:1"
         transform="matrix(3.7775238,0,0,-3.7799327,0,1122.64)" />
      <path
         id="path39"
         d="m 99.05,147.45 1.5,0.3"
         style="fill:none;stroke:#ffffff;stroke-width:0.15;stroke-linecap:round;stroke-linejoin:round;stroke-miterlimit:10;stroke-dasharray:none;stroke-opacity:1"
         transform="matrix(3.7775238,0,0,-3.7799327,0,1122.64)" />
      <path
         id="path40"
         d="m 110.825,146.7875 h 1.8"
         style="fill:none;stroke:#ffffff;stroke-width:0.05;stroke-linecap:round;stroke-linejoin:round;stroke-miterlimit:10;stroke-dasharray:none;stroke-opacity:1"
         transform="matrix(3.7775238,0,0,-3.7799327,0,1122.64)" />
      <path
         id="path41"
         d="m 112.625,146.7875 v 0.1782"
         style="fill:none;stroke:#ffffff;stroke-width:0.05;stroke-linecap:round;stroke-linejoin:round;stroke-miterlimit:10;stroke-dasharray:none;stroke-opacity:1"
         transform="matrix(3.7775238,0,0,-3.7799327,0,1122.64)" />
      <path
         id="path42"
         d="m 112.625,146.8766 -1.05,-0.0141"
         style="fill:none;stroke:#ffffff;stroke-width:0.05;stroke-linecap:round;stroke-linejoin:round;stroke-miterlimit:10;stroke-dasharray:none;stroke-opacity:1"
         transform="matrix(3.7775238,0,0,-3.7799327,0,1122.64)" />
    </g>
  </g>
</svg>
